<?xml version="1.0" encoding="UTF-8" standalone="no"?>
<!-- Created with Inkscape (http://www.inkscape.org/) -->

<svg
   width="79.976997mm"
   height="30.531454mm"
   viewBox="0 0 79.977 30.531453"
   version="1.1"
   id="svg1"
   xmlns="http://www.w3.org/2000/svg"
   xmlns:svg="http://www.w3.org/2000/svg">
  <defs
     id="defs1">
    <linearGradient
       id="swatch198">
      <stop
         style="stop-color:#6c6dfa;stop-opacity:1;"
         offset="0"
         id="stop198" />
    </linearGradient>
    <linearGradient
       id="swatch197">
      <stop
         style="stop-color:#e500c5;stop-opacity:1;"
         offset="0"
         id="stop197" />
    </linearGradient>
    <linearGradient
       id="swatch196">
      <stop
         style="stop-color:#e500c5;stop-opacity:1;"
         offset="0"
         id="stop196" />
    </linearGradient>
    <linearGradient
       id="swatch195">
      <stop
         style="stop-color:#e500c5;stop-opacity:1;"
         offset="0"
         id="stop195" />
    </linearGradient>
    <linearGradient
       id="swatch194">
      <stop
         style="stop-color:#e500c5;stop-opacity:1;"
         offset="0"
         id="stop194" />
    </linearGradient>
    <linearGradient
       id="swatch193">
      <stop
         style="stop-color:#cc5de8;stop-opacity:1;"
         offset="0"
         id="stop193" />
    </linearGradient>
    <linearGradient
       id="swatch192">
      <stop
         style="stop-color:#cc5de8;stop-opacity:1;"
         offset="0"
         id="stop192" />
    </linearGradient>
    <linearGradient
       id="swatch191">
      <stop
         style="stop-color:#cc5de8;stop-opacity:1;"
         offset="0"
         id="stop191" />
    </linearGradient>
    <linearGradient
       id="swatch190">
      <stop
         style="stop-color:#cc5de8;stop-opacity:1;"
         offset="0"
         id="stop190" />
    </linearGradient>
  </defs>
  <g
     id="layer1"
     transform="translate(-1178.6823,-656.34127)"
     style="display:inline">
    <path
       style="font-weight:800;font-family:'JetBrainsMono Nerd Font';-inkscape-font-specification:'JetBrainsMono Nerd Font Ultra-Bold';letter-spacing:-1.04px;white-space:pre;fill:#1a1a1a;fill-opacity:1;stroke-width:2.94084"
       d="m 1247.6138,682.38364 -5.418,-21.85152 h 4.6397 l 3.0233,13.79939 q 0.1497,0.71841 0.3592,1.82595 0.2395,1.10754 0.3592,1.88582 0.1198,-0.77828 0.2994,-1.88582 0.1795,-1.10754 0.3292,-1.85588 l 2.9335,-13.76946 h 4.52 l -5.3581,21.85153 z"
       id="path19-9-3-4-6-0-1" />
    <path
       id="path18-6-0-6-2-4-0"
       style="font-weight:800;font-family:'JetBrainsMono Nerd Font';-inkscape-font-specification:'JetBrainsMono Nerd Font Ultra-Bold';letter-spacing:-1.04px;white-space:pre;fill:#1a1a1a;fill-opacity:1;stroke-width:2.94084"
       d="m 1233.7087,660.5345 -5.3592,21.85092 h 4.5797 l 1.0475,-4.94021 h 5.2081 l 1.0475,4.94021 h 4.5797 l -5.4177,-21.85093 z m 2.8745,4.03889 c 0.08,0.41907 0.1868,1.00534 0.3263,1.76366 0.1597,0.73836 0.3133,1.48768 0.4531,2.24599 l 1.0475,5.27151 h -3.6833 l 1.106,-5.30074 c 0.1596,-0.75832 0.2992,-1.50763 0.419,-2.24599 0.1395,-0.73836 0.2515,-1.31536 0.3314,-1.73443 z" />
    <path
       id="path16-4-3-2-9-2-3"
       style="font-weight:800;font-family:'JetBrainsMono Nerd Font';-inkscape-font-specification:'JetBrainsMono Nerd Font Ultra-Bold';letter-spacing:-1.04px;white-space:pre;fill:#1a1a1a;fill-opacity:1;stroke-width:2.94084"
       d="m 1212.5096,660.53457 v 14.54123 a 5.5414815,5.5414815 0 0 1 2.2459,-0.47542 5.5414815,5.5414815 0 0 1 2.2438,0.47439 v -0.11937 0 -0.82838 0 -7.38404 l 5.8787,15.64246 h 5.9531 v -3.40341 -10.23969 -8.20777 h -4.4871 v 8.20777 0.77101 c 0,0.004 0,0.008 0,0.0114 v 6.49211 l -5.8812,-15.48226 z" />
    <path
       id="path15-3-9-8-0-2-40"
       style="font-weight:800;font-family:'JetBrainsMono Nerd Font';-inkscape-font-specification:'JetBrainsMono Nerd Font Ultra-Bold';letter-spacing:-1.04px;white-space:pre;fill:#1a1a1a;fill-opacity:1;stroke-width:2.94084"
       d="m 1204.7272,656.34127 c 0,8.78051 0,17.56103 0,26.34154 -1.546,0 -3.092,0 -4.638,0 0,1.39664 0,2.79328 0,4.18992 3.0417,0 6.0834,0 9.1251,0 0,-10.17715 0,-20.35431 0,-30.53146 -1.4957,0 -2.9914,0 -4.4871,0 z" />
    <path
       style="font-weight:800;font-family:'JetBrainsMono Nerd Font';-inkscape-font-specification:'JetBrainsMono Nerd Font Ultra-Bold';letter-spacing:-1.04px;white-space:pre;fill:#1a1a1a;fill-opacity:1;stroke-width:2.94084"
       d="m 1193.9484,682.68299 q -3.4424,0 -5.4779,-1.85588 -2.0055,-1.88582 -2.0055,-5.05878 h 4.4901 q 0,1.37695 0.8081,2.21509 0.8082,0.8082 2.1852,0.8082 1.3769,0 2.1851,-0.77827 0.8083,-0.80821 0.8083,-2.18515 v -15.29607 h 4.49 v 15.29607 q 0,3.17296 -2.0056,5.02884 -2.0055,1.82595 -5.4778,1.82595 z"
       id="path14-3-2-6-8-2-3" />
    <path
       id="text14-38-5-2-1-0-91"
       style="font-weight:800;font-family:'JetBrainsMono Nerd Font';-inkscape-font-specification:'JetBrainsMono Nerd Font Ultra-Bold';letter-spacing:-1.04px;white-space:pre;fill:#1a1a1a;fill-opacity:1;stroke-width:2.94084"
       d="m 1178.6823,656.34127 c 0,10.17715 0,20.35431 0,30.53146 1.4967,0 2.9934,0 4.4901,0 0,-8.78017 0,-17.56034 0,-26.34051 1.5465,0 3.0931,0 4.6396,0 0,-1.39698 0,-2.79397 0,-4.19095 -3.0433,0 -6.0865,0 -9.1297,0 z" />
    <circle
       style="fill:#1a1a1a;fill-opacity:1;stroke-width:2.94084"
       id="path37-8-3-5-96"
       cx="1214.7557"
       cy="680.14191"
       r="2.7331076" />
  </g>
</svg>
