<?xml version="1.0" encoding="UTF-8" standalone="no"?>
<!-- Created with Inkscape (http://www.inkscape.org/) -->

<svg
   width="79.976997mm"
   height="30.531471mm"
   viewBox="0 0 79.977 30.53147"
   version="1.1"
   id="svg1"
   xmlns="http://www.w3.org/2000/svg"
   xmlns:svg="http://www.w3.org/2000/svg">
  <defs
     id="defs1">
    <linearGradient
       id="swatch198">
      <stop
         style="stop-color:#6c6dfa;stop-opacity:1;"
         offset="0"
         id="stop198" />
    </linearGradient>
    <linearGradient
       id="swatch197">
      <stop
         style="stop-color:#e500c5;stop-opacity:1;"
         offset="0"
         id="stop197" />
    </linearGradient>
    <linearGradient
       id="swatch196">
      <stop
         style="stop-color:#e500c5;stop-opacity:1;"
         offset="0"
         id="stop196" />
    </linearGradient>
    <linearGradient
       id="swatch195">
      <stop
         style="stop-color:#e500c5;stop-opacity:1;"
         offset="0"
         id="stop195" />
    </linearGradient>
    <linearGradient
       id="swatch194">
      <stop
         style="stop-color:#e500c5;stop-opacity:1;"
         offset="0"
         id="stop194" />
    </linearGradient>
    <linearGradient
       id="swatch193">
      <stop
         style="stop-color:#cc5de8;stop-opacity:1;"
         offset="0"
         id="stop193" />
    </linearGradient>
    <linearGradient
       id="swatch192">
      <stop
         style="stop-color:#cc5de8;stop-opacity:1;"
         offset="0"
         id="stop192" />
    </linearGradient>
    <linearGradient
       id="swatch191">
      <stop
         style="stop-color:#cc5de8;stop-opacity:1;"
         offset="0"
         id="stop191" />
    </linearGradient>
    <linearGradient
       id="swatch190">
      <stop
         style="stop-color:#cc5de8;stop-opacity:1;"
         offset="0"
         id="stop190" />
    </linearGradient>
  </defs>
  <g
     id="layer1"
     transform="translate(-1037.3414,-737.09228)"
     style="display:inline">
    <path
       style="font-weight:800;font-family:'JetBrainsMono Nerd Font';-inkscape-font-specification:'JetBrainsMono Nerd Font Ultra-Bold';letter-spacing:-1.04px;white-space:pre;fill:#20c997;stroke-width:2.49447"
       d="m 1106.2729,763.13462 -5.418,-21.85152 h 4.6397 l 3.0233,13.79939 q 0.1497,0.71841 0.3592,1.82595 0.2395,1.10754 0.3592,1.88582 0.1197,-0.77828 0.2993,-1.88582 0.1796,-1.10754 0.3293,-1.85588 l 2.9335,-13.76946 h 4.52 l -5.3581,21.85153 z"
       id="path19-9-3-4-8-06-5" />
    <path
       id="path18-6-0-6-7-2-6"
       style="font-weight:800;font-family:'JetBrainsMono Nerd Font';-inkscape-font-specification:'JetBrainsMono Nerd Font Ultra-Bold';letter-spacing:-1.04px;white-space:pre;fill:#20c997;stroke-width:2.49447"
       d="m 1092.3678,741.28548 -5.3593,21.85092 h 4.5798 l 1.0474,-4.94021 h 5.2082 l 1.0475,4.94021 h 4.5797 l -5.4177,-21.85093 z m 2.8744,4.03889 c 0.08,0.41907 0.1869,1.00534 0.3264,1.76366 0.1596,0.73836 0.3133,1.48768 0.4531,2.24599 l 1.0475,5.27151 h -3.6833 l 1.106,-5.30074 c 0.1596,-0.75832 0.2992,-1.50763 0.419,-2.24599 0.1395,-0.73836 0.2515,-1.31536 0.3313,-1.73443 z" />
    <path
       id="path16-4-3-2-0-9-6"
       style="font-weight:800;font-family:'JetBrainsMono Nerd Font';-inkscape-font-specification:'JetBrainsMono Nerd Font Ultra-Bold';letter-spacing:-1.04px;white-space:pre;fill:#20c997;stroke-width:2.65825"
       d="m 1071.1687,741.28555 v 14.54123 a 5.5414815,5.5414815 0 0 1 2.2459,-0.47542 5.5414815,5.5414815 0 0 1 2.2438,0.47439 v -0.11937 0 -0.82838 0 -7.38404 l 5.8787,15.64246 h 5.9531 v -3.40341 -10.23969 -8.20777 h -4.4871 v 8.20777 0.77101 c 0,0.004 0,0.008 0,0.0114 v 6.49211 l -5.8813,-15.48226 z" />
    <path
       id="path15-3-9-8-4-9-4"
       style="font-weight:800;font-family:'JetBrainsMono Nerd Font';-inkscape-font-specification:'JetBrainsMono Nerd Font Ultra-Bold';letter-spacing:-1.04px;white-space:pre;fill:#20c997;fill-opacity:1;stroke-width:2.94084"
       d="m 1063.3863,737.09225 c 0,8.78051 0,17.56103 0,26.34154 -1.546,0 -3.092,0 -4.638,0 0,1.39664 0,2.79328 0,4.18992 3.0417,0 6.0834,0 9.125,0 0,-10.17715 0,-20.35431 0,-30.53146 -1.4956,0 -2.9913,0 -4.487,0 z" />
    <path
       style="font-weight:800;font-family:'JetBrainsMono Nerd Font';-inkscape-font-specification:'JetBrainsMono Nerd Font Ultra-Bold';letter-spacing:-1.04px;white-space:pre;fill:#20c997;stroke-width:2.49447"
       d="m 1052.6075,763.43397 q -3.4424,0 -5.4779,-1.85588 -2.0055,-1.88582 -2.0055,-5.05878 h 4.49 q 0,1.37695 0.8082,2.21509 0.8082,0.8082 2.1852,0.8082 1.3769,0 2.1851,-0.77827 0.8082,-0.80821 0.8082,-2.18515 v -15.29607 h 4.4901 v 15.29607 q 0,3.17296 -2.0056,5.02884 -2.0055,1.82595 -5.4778,1.82595 z"
       id="path14-3-2-6-80-08-0" />
    <path
       id="text14-38-5-2-4-1-0"
       style="font-weight:800;font-family:'JetBrainsMono Nerd Font';-inkscape-font-specification:'JetBrainsMono Nerd Font Ultra-Bold';letter-spacing:-1.04px;white-space:pre;fill:#20c997;fill-opacity:1;stroke-width:2.94084"
       d="m 1037.3414,737.09225 c 0,10.17715 0,20.35431 0,30.53146 1.4967,0 2.9934,0 4.4901,0 0,-8.78017 0,-17.56034 0,-26.34051 1.5465,0 3.093,0 4.6395,0 0,-1.39698 0,-2.79397 0,-4.19095 -3.0432,0 -6.0864,0 -9.1296,0 z" />
    <circle
       style="fill:#20c997;fill-opacity:1;stroke-width:3.58258"
       id="path37-8-2-3-4"
       cx="1073.4148"
       cy="760.89288"
       r="2.7331076" />
  </g>
</svg>
